<svg width="16" height="16" viewBox="0 0 16 16" fill="none" xmlns="http://www.w3.org/2000/svg">
<g id="call (3) 2">
<g id="Group">
<path id="Vector" fill-rule="evenodd" clip-rule="evenodd" d="M12.4456 3.55493C11.4802 2.58953 10.0852 2.28422 8.80413 2.64923C8.53859 2.7249 8.26193 2.57095 8.18626 2.30538C8.11059 2.03981 8.26453 1.76318 8.53013 1.68751C10.1327 1.2309 11.9111 1.60617 13.1527 2.84783C14.3944 4.08949 14.7697 5.8679 14.3131 7.47043C14.2374 7.73603 13.9607 7.88997 13.6952 7.8143C13.4296 7.73863 13.2757 7.46197 13.3513 7.19643C13.7163 5.91536 13.4111 4.52035 12.4456 3.55493ZM11.1543 4.84621C10.8208 4.51261 10.3935 4.39931 10.0561 4.46651C9.78526 4.52045 9.52199 4.34464 9.46799 4.07381C9.41406 3.80299 9.58993 3.53972 9.86073 3.48577C10.5533 3.34783 11.3122 3.58985 11.8615 4.1391C12.4107 4.68834 12.6527 5.44729 12.5148 6.13984C12.4609 6.41066 12.1976 6.58648 11.9267 6.53254C11.6559 6.47859 11.4801 6.21532 11.5341 5.9445C11.6013 5.60712 11.4879 5.17979 11.1543 4.84621Z" fill="#FFF"/>
<path id="Vector_2" fill-rule="evenodd" clip-rule="evenodd" d="M3.74661 1.60981C3.97951 1.53709 4.22114 1.5 4.46441 1.5C5.6337 1.5 6.50001 2.52964 6.5 3.69405V6.30596C6.50001 7.47033 5.6337 8.5 4.46441 8.5C4.22113 8.5 3.97951 8.46293 3.74661 8.3902L3.56858 8.3346C3.50779 8.3156 3.44798 8.29453 3.38921 8.27153C4.31674 10.1552 5.84482 11.6833 7.72847 12.6108C7.70547 12.552 7.6844 12.4922 7.6654 12.4314L7.6098 12.2534C7.53707 12.0205 7.5 11.7789 7.5 11.5356C7.5 10.3663 8.52967 9.5 9.69407 9.5H12.3059C13.4703 9.5 14.5 10.3663 14.5 11.5356C14.5 11.7789 14.4629 12.0205 14.3902 12.2534L14.3346 12.4314C14.0108 13.4685 13.0845 14.2195 11.9765 14.4147C11.3315 14.5284 10.6685 14.5284 10.0235 14.4147C9.99807 14.4103 9.97273 14.4055 9.9476 14.4005C5.71983 13.5871 2.41292 10.2801 1.59954 6.05237C1.59449 6.0272 1.58973 6.00193 1.58525 5.97656C1.47158 5.33146 1.47158 4.66854 1.58525 4.02344C1.78049 2.91547 2.53152 1.98923 3.56857 1.66541L3.74661 1.60981ZM2.58098 5.8606C2.57716 5.84071 2.57341 5.82081 2.56971 5.80089C2.47664 5.27127 2.47677 4.72656 2.57008 4.19698C2.70775 3.41575 3.22507 2.82028 3.86663 2.61995L4.04466 2.56436C4.18186 2.52152 4.32303 2.5 4.46441 2.5C4.99129 2.5 5.50001 2.98726 5.5 3.69404V6.30596C5.5 7.01273 4.99129 7.5 4.46441 7.5C4.32303 7.5 4.18186 7.47847 4.04466 7.43567L3.86663 7.38007C3.24092 7.18467 2.73339 6.61345 2.58098 5.8606ZM10.1991 13.4303C10.7287 13.5233 11.2734 13.5233 11.803 13.4299C12.5843 13.2923 13.1797 12.7749 13.3801 12.1334L13.4357 11.9553C13.4785 11.8181 13.5 11.677 13.5 11.5356C13.5 11.0087 13.0127 10.5 12.3059 10.5H9.69407C8.98727 10.5 8.5 11.0087 8.5 11.5356C8.5 11.677 8.52153 11.8181 8.56433 11.9553L8.61994 12.1333C8.81533 12.7591 9.3866 13.2666 10.1395 13.419C10.1593 13.4229 10.1792 13.4266 10.1991 13.4303Z" fill="#FFF"/>
</g>
</g>
</svg>
