<svg width="24" height="24" viewBox="0 0 24 24" fill="none" xmlns="http://www.w3.org/2000/svg">
<path fill-rule="evenodd" clip-rule="evenodd" d="M20.9981 2.17195C21.2269 1.94317 21.5979 1.94317 21.8267 2.17195C22.0555 2.40073 22.0555 2.77173 21.8267 3.00052L2.99925 21.8279C2.88488 21.9424 2.73492 21.9996 2.58497 21.9996C2.43501 21.9996 2.2851 21.9424 2.17069 21.828C1.94187 21.5992 1.94187 21.2282 2.17069 20.9994L6.57002 16.6C6.03027 16.2407 5.49228 15.8313 4.96015 15.3738C3.2237 13.8807 2.15401 12.4042 2.10932 12.3421C1.96226 12.1377 1.96226 11.8622 2.10932 11.6578C2.15401 11.5957 3.22373 10.1192 4.96015 8.62609C5.98727 7.743 7.03613 7.03763 8.07758 6.52964C9.40378 5.88283 10.7231 5.55487 11.9987 5.55487C13.2743 5.55487 14.5936 5.88283 15.9198 6.52968C16.078 6.60683 16.2364 6.68897 16.3949 6.77522L20.9981 2.17195ZM11.9987 7.89854C9.73717 7.89854 7.89727 9.73843 7.89727 12C7.89727 12.9199 8.20172 13.77 8.71513 14.4549L9.55573 13.6143C9.24855 13.1511 9.06911 12.5962 9.06911 12C9.06911 10.3846 10.3833 9.07037 11.9987 9.07037C12.595 9.07037 13.1499 9.24982 13.6131 9.55699L14.4537 8.7164C13.7687 8.20298 12.9186 7.89854 11.9987 7.89854ZM19.0384 8.62593C18.8233 8.44098 18.6072 8.26431 18.3905 8.09509L15.8632 10.6224C16.0172 11.0531 16.1013 11.5168 16.1013 11.9998C16.1013 14.2613 14.2614 16.1012 11.9999 16.1012C11.5169 16.1012 11.0532 16.017 10.6225 15.863L8.72578 17.7597C9.8334 18.2141 10.932 18.4449 11.9999 18.4449C13.2755 18.4449 14.5948 18.1169 15.921 17.4701C16.9625 16.9621 18.0113 16.2567 19.0384 15.3737C20.7749 13.8805 21.8446 12.4041 21.8893 12.3419C22.0363 12.1376 22.0363 11.8621 21.8893 11.6577C21.8446 11.5955 20.7749 10.1191 19.0384 8.62593ZM11.998 14.9294C13.6133 14.9294 14.9275 13.6152 14.9275 11.9998C14.9275 11.8592 14.917 11.7211 14.8977 11.5858L11.584 14.8996C11.7193 14.9188 11.8574 14.9294 11.998 14.9294Z" fill="#777E91"/>
</svg>
