<svg xmlns="http://www.w3.org/2000/svg" width="24" height="24" viewBox="0 0 24 24" fill="none">
<path fill-rule="evenodd" clip-rule="evenodd" d="M7.18829 11.9997C7.18829 9.34765 9.34548 7.18957 12.0004 7.18957C14.6526 7.18957 16.8097 9.3476 16.8097 11.9997C16.8097 14.6524 14.6526 16.8096 12.0004 16.8096C9.34543 16.8096 7.18829 14.6524 7.18829 11.9997ZM1.33759 11.5408C1.17165 11.841 1.17165 12.1585 1.33759 12.4589C3.49192 16.3275 7.57735 18.7308 12.0004 18.7308C16.4206 18.7308 20.5061 16.3276 22.6604 12.4589C22.8292 12.1585 22.8292 11.841 22.6604 11.5408C20.5061 7.67224 16.4207 5.26929 12.0004 5.26929C7.57735 5.26929 3.49192 7.67224 1.33759 11.5408ZM12.0004 8.76597C10.2152 8.76597 8.76465 10.2165 8.76465 11.9997C8.76465 13.783 10.2152 15.2335 12.0004 15.2335C13.7828 15.2335 15.2333 13.783 15.2333 11.9997C15.2333 10.2165 13.7828 8.76597 12.0004 8.76597Z" fill="#777E91"/>
</svg>
