<svg width="20" height="20" viewBox="0 0 20 20" fill="none" xmlns="http://www.w3.org/2000/svg">
<g id="instagram (1) 1" clip-path="url(#clip0_1_318)">
<path id="Vector" d="M11.9141 10C11.9141 11.0571 11.0571 11.9141 10 11.9141C8.94287 11.9141 8.08594 11.0571 8.08594 10C8.08594 8.94287 8.94287 8.08594 10 8.08594C11.0571 8.08594 11.9141 8.94287 11.9141 10Z" fill="#D4BBA0"/>
<path id="Vector_2" d="M14.476 6.61343C14.3839 6.36411 14.2372 6.13843 14.0464 5.95319C13.8612 5.76245 13.6357 5.61566 13.3862 5.52365C13.1838 5.44507 12.8799 5.35153 12.32 5.32605C11.7144 5.29843 11.5328 5.29248 9.99963 5.29248C8.46628 5.29248 8.2847 5.29828 7.67923 5.3259C7.11938 5.35153 6.81528 5.44507 6.6131 5.52365C6.36362 5.61566 6.13794 5.76245 5.95285 5.95319C5.76212 6.13843 5.61533 6.36395 5.52316 6.61343C5.44458 6.81577 5.35104 7.11987 5.32556 7.67972C5.29794 8.28519 5.29199 8.46677 5.29199 10.0001C5.29199 11.5333 5.29794 11.7149 5.32556 12.3205C5.35104 12.8804 5.44458 13.1843 5.52316 13.3867C5.61533 13.6361 5.76196 13.8617 5.9527 14.0469C6.13794 14.2376 6.36346 14.3844 6.61295 14.4764C6.81528 14.5552 7.11938 14.6487 7.67923 14.6742C8.2847 14.7018 8.46613 14.7076 9.99948 14.7076C11.533 14.7076 11.7146 14.7018 12.3199 14.6742C12.8797 14.6487 13.1838 14.5552 13.3862 14.4764C13.887 14.2833 14.2828 13.8875 14.476 13.3867C14.5545 13.1843 14.6481 12.8804 14.6737 12.3205C14.7013 11.7149 14.7071 11.5333 14.7071 10.0001C14.7071 8.46677 14.7013 8.28519 14.6737 7.67972C14.6482 7.11987 14.5547 6.81577 14.476 6.61343ZM9.99963 12.9486C8.37106 12.9486 7.05087 11.6285 7.05087 9.99997C7.05087 8.3714 8.37106 7.05136 9.99963 7.05136C11.6281 7.05136 12.9482 8.3714 12.9482 9.99997C12.9482 11.6285 11.6281 12.9486 9.99963 12.9486ZM13.0648 7.62387C12.6843 7.62387 12.3757 7.31534 12.3757 6.93478C12.3757 6.55423 12.6843 6.2457 13.0648 6.2457C13.4454 6.2457 13.7539 6.55423 13.7539 6.93478C13.7538 7.31534 13.4454 7.62387 13.0648 7.62387Z" fill="#FFF"/>
<path id="Vector_3" d="M10 0C4.478 0 0 4.478 0 10C0 15.522 4.478 20 10 20C15.522 20 20 15.522 20 10C20 4.478 15.522 0 10 0ZM15.7076 12.3674C15.6798 12.9787 15.5826 13.396 15.4407 13.7613C15.1424 14.5326 14.5326 15.1424 13.7613 15.4407C13.3961 15.5826 12.9787 15.6796 12.3676 15.7076C11.7552 15.7355 11.5596 15.7422 10.0002 15.7422C8.44055 15.7422 8.24509 15.7355 7.6326 15.7076C7.02148 15.6796 6.604 15.5826 6.23886 15.4407C5.85556 15.2965 5.50858 15.0705 5.22171 14.7783C4.92966 14.4916 4.70367 14.1444 4.55948 13.7613C4.41757 13.3961 4.32037 12.9787 4.2926 12.3676C4.26437 11.7551 4.25781 11.5594 4.25781 10C4.25781 8.44055 4.26437 8.24493 4.29245 7.6326C4.32022 7.02133 4.41727 6.604 4.55917 6.23871C4.70337 5.85556 4.9295 5.50842 5.22171 5.22171C5.50842 4.9295 5.85556 4.70352 6.23871 4.55933C6.604 4.41742 7.02133 4.32037 7.6326 4.29245C8.24493 4.26453 8.44055 4.25781 10 4.25781C11.5594 4.25781 11.7551 4.26453 12.3674 4.2926C12.9787 4.32037 13.396 4.41742 13.7613 4.55917C14.1444 4.70337 14.4916 4.9295 14.7784 5.22171C15.0705 5.50858 15.2966 5.85556 15.4407 6.23871C15.5827 6.604 15.6798 7.02133 15.7077 7.6326C15.7356 8.24493 15.7422 8.44055 15.7422 10C15.7422 11.5594 15.7356 11.7551 15.7076 12.3674Z" fill="#FFF"/>
</g>
<defs>
<clipPath id="clip0_1_318">
<rect width="20" height="20" fill="white"/>
</clipPath>
</defs>
</svg>
