<svg width="16" height="17" viewBox="0 0 16 17" fill="none" xmlns="http://www.w3.org/2000/svg">
<g id="vuesax/outline/location">
<g id="vuesax/outline/location_2">
<g id="location">
<path id="Vector" d="M7.99992 9.94667C6.57992 9.94667 5.41992 8.79333 5.41992 7.36667C5.41992 5.94 6.57992 4.79333 7.99992 4.79333C9.41992 4.79333 10.5799 5.94667 10.5799 7.37334C10.5799 8.8 9.41992 9.94667 7.99992 9.94667ZM7.99992 5.79333C7.13326 5.79333 6.41992 6.5 6.41992 7.37334C6.41992 8.24667 7.12659 8.95333 7.99992 8.95333C8.87326 8.95333 9.57992 8.24667 9.57992 7.37334C9.57992 6.5 8.86659 5.79333 7.99992 5.79333Z" fill="#FFF"/>
<path id="Vector_2" d="M8.00012 15.6733C7.01345 15.6733 6.02012 15.3 5.24678 14.56C3.28012 12.6667 1.10678 9.64667 1.92678 6.05333C2.66678 2.79333 5.51345 1.33333 8.00012 1.33333C8.00012 1.33333 8.00012 1.33333 8.00678 1.33333C10.4935 1.33333 13.3401 2.79333 14.0801 6.06C14.8934 9.65333 12.7201 12.6667 10.7534 14.56C9.98012 15.3 8.98678 15.6733 8.00012 15.6733ZM8.00012 2.33333C6.06012 2.33333 3.56678 3.36667 2.90678 6.27333C2.18678 9.41333 4.16012 12.12 5.94678 13.8333C7.10012 14.9467 8.90678 14.9467 10.0601 13.8333C11.8401 12.12 13.8134 9.41333 13.1068 6.27333C12.4401 3.36667 9.94012 2.33333 8.00012 2.33333Z" fill="#FFF"/>
</g>
</g>
</g>
</svg>
