<svg width="24" height="24" viewBox="0 0 24 24" fill="none" xmlns="http://www.w3.org/2000/svg">
<g id="Menu">
<path id="Vector" d="M22.0833 12.8078H1.91667C1.41067 12.8078 1 12.4459 1 12.0001C1 11.5543 1.41067 11.1924 1.91667 11.1924H22.0833C22.5893 11.1924 23 11.5543 23 12.0001C23 12.4459 22.5893 12.8078 22.0833 12.8078ZM22.0833 6.61539H1.91667C1.41067 6.61539 1 6.25354 1 5.8077C1 5.36185 1.41067 5 1.91667 5H22.0833C22.5893 5 23 5.36185 23 5.8077C23 6.25354 22.5893 6.61539 22.0833 6.61539ZM22.0833 19H1.91667C1.41067 19 1 18.6382 1 18.1923C1 17.7465 1.41067 17.3846 1.91667 17.3846H22.0833C22.5893 17.3846 23 17.7465 23 18.1923C23 18.6382 22.5893 19 22.0833 19Z" fill="white"/>
</g>
</svg>
