<svg xmlns="http://www.w3.org/2000/svg" width="16" height="16" viewBox="0 0 16 16" fill="none">
    <path d="M9.48125 14.4201C8.69458 14.4201 7.58125 13.8667 6.70125 11.2201L6.22122 9.78007L4.78122 9.30007C2.14122 8.42007 1.58789 7.30673 1.58789 6.52005C1.58789 5.74005 2.14122 4.62005 4.78122 3.73338L10.4413 1.84671C11.8546 1.37338 13.0346 1.51338 13.7613 2.23338C14.4879 2.95338 14.6279 4.14005 14.1546 5.55338L12.2679 11.2134C11.3813 13.8667 10.2679 14.4201 9.48125 14.4201ZM5.09456 4.68671C3.24122 5.30671 2.58122 6.04005 2.58122 6.52005C2.58122 7.00007 3.24122 7.7334 5.09456 8.34673L6.77458 8.90673C6.92125 8.9534 7.04125 9.0734 7.08792 9.22007L7.64792 10.9001C8.26125 12.7534 9.00125 13.4134 9.48125 13.4134C9.96125 13.4134 10.6946 12.7534 11.3146 10.9001L13.2013 5.24005C13.5413 4.21338 13.4813 3.37338 13.0479 2.94005C12.6146 2.50671 11.7746 2.45338 10.7546 2.79338L5.09456 4.68671Z" fill="#1F1F1F"/>
    <path d="M6.74151 9.60016C6.61483 9.60016 6.48816 9.5535 6.38816 9.4535C6.19483 9.26016 6.19483 8.94016 6.38816 8.74683L8.77484 6.3535C8.96818 6.16016 9.28818 6.16016 9.48151 6.3535C9.67484 6.54683 9.67484 6.86683 9.48151 7.06016L7.09484 9.4535C7.00151 9.5535 6.86818 9.60016 6.74151 9.60016Z" fill="#1F1F1F"/>
</svg>